<svg xmlns="http://www.w3.org/2000/svg" viewBox="0 0 900 420" font-family="PingFang SC, Microsoft YaHei, sans-serif">
<rect width="900" height="420" fill="white"/>
<rect x="60" y="80" width="220" height="110" rx="10" fill="#fff3e6" stroke="#2b3a4a" stroke-width="2"/><text x="170.0" y="129.0" text-anchor="middle" font-size="20" fill="#2b3a4a" font-weight="bold">① 被看见</text><text x="170.0" y="155.0" text-anchor="middle" font-size="20" fill="#2b3a4a" font-weight="bold">渠道 + 曝光</text><rect x="340" y="80" width="220" height="110" rx="10" fill="#fff3e6" stroke="#2b3a4a" stroke-width="2"/><text x="450.0" y="129.0" text-anchor="middle" font-size="20" fill="#2b3a4a" font-weight="bold">② 被信任</text><text x="450.0" y="155.0" text-anchor="middle" font-size="20" fill="#2b3a4a" font-weight="bold">内容 + 证据</text><rect x="620" y="80" width="220" height="110" rx="10" fill="#fff3e6" stroke="#2b3a4a" stroke-width="2"/><text x="730.0" y="129.0" text-anchor="middle" font-size="20" fill="#2b3a4a" font-weight="bold">③ 被选择</text><text x="730.0" y="155.0" text-anchor="middle" font-size="20" fill="#2b3a4a" font-weight="bold">转化 + 复购</text><line x1="285" y1="135" x2="335" y2="135" stroke="#ff5f00" stroke-width="3" /><polygon points="335,135 323.94726807196537,139.6730201077038 323.94726807196537,130.3269798922962" fill="#ff5f00"/><line x1="565" y1="135" x2="615" y2="135" stroke="#ff5f00" stroke-width="3" /><polygon points="615,135 603.9472680719654,139.6730201077038 603.9472680719654,130.3269798922962" fill="#ff5f00"/><g stroke="#2b3a4a" stroke-width="3.0" fill="none" stroke-linecap="round"><circle cx="170" cy="270" r="14.0"/><line x1="170" y1="284.0" x2="170" y2="314.0"/><line x1="154.0" y1="302.0" x2="186.0" y2="302.0"/><line x1="170" y1="314.0" x2="158.0" y2="338.0"/><line x1="170" y1="314.0" x2="182.0" y2="338.0"/></g><text x="170" y="358.0" text-anchor="middle" font-size="15" fill="#2b3a4a">酒香也怕巷子深</text><g stroke="#2b3a4a" stroke-width="3.0" fill="none" stroke-linecap="round"><circle cx="450" cy="270" r="14.0"/><line x1="450" y1="284.0" x2="450" y2="314.0"/><line x1="434.0" y1="302.0" x2="466.0" y2="302.0"/><line x1="450" y1="314.0" x2="438.0" y2="338.0"/><line x1="450" y1="314.0" x2="462.0" y2="338.0"/></g><text x="450" y="358.0" text-anchor="middle" font-size="15" fill="#2b3a4a">凭什么信你</text><g stroke="#2b3a4a" stroke-width="3.0" fill="none" stroke-linecap="round"><circle cx="730" cy="270" r="14.0"/><line x1="730" y1="284.0" x2="730" y2="314.0"/><line x1="730" y1="298.0" x2="712.0" y2="282.0"/><line x1="730" y1="298.0" x2="748.0" y2="282.0"/><line x1="730" y1="314.0" x2="718.0" y2="338.0"/><line x1="730" y1="314.0" x2="742.0" y2="338.0"/></g><text x="730" y="358.0" text-anchor="middle" font-size="15" fill="#2b3a4a">成交！</text><text x="450" y="395" text-anchor="middle" font-size="17" fill="#b5432e" font-weight="bold">生意 = 流量 × 信任 × 转化 —— 近两年变化最大的是「被看见」</text></svg>