<svg xmlns="http://www.w3.org/2000/svg" viewBox="0 0 900 460" font-family="PingFang SC, Microsoft YaHei, sans-serif">
<rect width="900" height="460" fill="white"/>
<rect x="120" y="60" width="300" height="70" rx="10" fill="#fff3e6" stroke="#2b3a4a" stroke-width="2"/><text x="270.0" y="100.6" text-anchor="middle" font-size="16" fill="#2b3a4a" font-weight="bold">① 标题（含标签词）</text><rect x="120" y="148" width="300" height="70" rx="10" fill="#ffe0cc" stroke="#2b3a4a" stroke-width="2"/><text x="270.0" y="188.6" text-anchor="middle" font-size="16" fill="#2b3a4a" font-weight="bold">② 40~80字核心答案</text><rect x="120" y="236" width="300" height="70" rx="10" fill="#fff3e6" stroke="#2b3a4a" stroke-width="2"/><text x="270.0" y="276.6" text-anchor="middle" font-size="16" fill="#2b3a4a" >③ 为什么重要</text><rect x="120" y="324" width="300" height="70" rx="10" fill="#fff3e6" stroke="#2b3a4a" stroke-width="2"/><text x="270.0" y="364.6" text-anchor="middle" font-size="16" fill="#2b3a4a" >④ 原理/方法</text><rect x="470" y="60" width="300" height="70" rx="10" fill="#fff3e6" stroke="#2b3a4a" stroke-width="2"/><text x="620.0" y="100.6" text-anchor="middle" font-size="16" fill="#2b3a4a" >⑤ 方案对比(表格)</text><rect x="470" y="148" width="300" height="70" rx="10" fill="#fff3e6" stroke="#2b3a4a" stroke-width="2"/><text x="620.0" y="188.6" text-anchor="middle" font-size="16" fill="#2b3a4a" >⑥ 案例+数据</text><rect x="470" y="236" width="300" height="70" rx="10" fill="#fff3e6" stroke="#2b3a4a" stroke-width="2"/><text x="620.0" y="276.6" text-anchor="middle" font-size="16" fill="#2b3a4a" >⑦ 下一步行动</text><rect x="470" y="324" width="300" height="70" rx="10" fill="#ffe0cc" stroke="#2b3a4a" stroke-width="2"/><text x="620.0" y="364.6" text-anchor="middle" font-size="16" fill="#2b3a4a" font-weight="bold">⑧ FAQ 5~10问</text><text x="450" y="435" text-anchor="middle" font-size="14" fill="#b5432e" font-weight="bold">②核心答案是 AI 最爱引用的部分；⑧FAQ 是 AI 最喜欢的结构 —— 质量红线：≥800字 + ≥3个证据点</text></svg>