<svg xmlns="http://www.w3.org/2000/svg" viewBox="0 0 900 420" font-family="PingFang SC, Microsoft YaHei, sans-serif">
<rect width="900" height="420" fill="white"/>
<line x1="450" y1="90" x2="450" y2="300" stroke="#2b3a4a" stroke-width="4"/><line x1="180" y1="150" x2="720" y2="110" stroke="#2b3a4a" stroke-width="5"/><polygon points="430,300 470,300 480,330 420,330" fill="#2b3a4a"/><rect x="90" y="160" width="190" height="80" rx="10" fill="#fff3e6" stroke="#2b3a4a" stroke-width="2"/><text x="185.0" y="194.6" text-anchor="middle" font-size="16" fill="#2b3a4a" >过去：信「人」</text><text x="185.0" y="216.6" text-anchor="middle" font-size="16" fill="#2b3a4a" >自己搜 · 问朋友</text><rect x="620" y="20" width="200" height="80" rx="10" fill="#ffe9d2" stroke="#2b3a4a" stroke-width="2"/><text x="720.0" y="54.6" text-anchor="middle" font-size="16" fill="#2b3a4a" font-weight="bold">现在：信「AI」</text><text x="720.0" y="76.6" text-anchor="middle" font-size="16" fill="#2b3a4a" font-weight="bold">有事先问 AI</text><g stroke="#8a94a3" stroke-width="2.4000000000000004" fill="none" stroke-linecap="round"><circle cx="150" cy="320" r="11.200000000000001"/><line x1="150" y1="331.2" x2="150" y2="355.2"/><line x1="137.2" y1="345.59999999999997" x2="162.8" y2="345.59999999999997"/><line x1="150" y1="355.2" x2="140.4" y2="374.4"/><line x1="150" y1="355.2" x2="159.6" y2="374.4"/></g><text x="150" y="390.4" text-anchor="middle" font-size="15" fill="#8a94a3">十大排行</text><g stroke="#8a94a3" stroke-width="2.4000000000000004" fill="none" stroke-linecap="round"><circle cx="250" cy="320" r="11.200000000000001"/><line x1="250" y1="331.2" x2="250" y2="355.2"/><line x1="237.2" y1="345.59999999999997" x2="262.8" y2="345.59999999999997"/><line x1="250" y1="355.2" x2="240.4" y2="374.4"/><line x1="250" y1="355.2" x2="259.6" y2="374.4"/></g><text x="250" y="390.4" text-anchor="middle" font-size="15" fill="#8a94a3">朋友推荐</text><text x="720" y="140" text-anchor="middle" font-size="15" fill="#ff5f00" font-weight="bold">⬆ 权重上升</text><text x="450" y="380" text-anchor="middle" font-size="17" fill="#2b3a4a" font-weight="bold">决策周期从 7~14 天，压缩到「AI 给的 3~4 个里直接选」</text></svg>