<svg xmlns="http://www.w3.org/2000/svg" viewBox="0 0 900 420" font-family="PingFang SC, Microsoft YaHei, sans-serif">
<rect width="900" height="420" fill="white"/>
<g stroke="#2b3a4a" stroke-width="3.0" fill="none" stroke-linecap="round"><circle cx="120" cy="180" r="14.0"/><line x1="120" y1="194.0" x2="120" y2="224.0"/><line x1="120" y1="208.0" x2="146.0" y2="196.0"/><line x1="120" y1="208.0" x2="106.0" y2="216.0"/><line x1="120" y1="224.0" x2="108.0" y2="248.0"/><line x1="120" y1="224.0" x2="132.0" y2="248.0"/></g><text x="120" y="268.0" text-anchor="middle" font-size="15" fill="#2b3a4a">你的选择</text><line x1="180" y1="220" x2="360" y2="120" stroke="#b5432e" stroke-width="3" /><polygon points="360,120 352.60759314664966,129.45263565967392 348.06875478152574,121.28272660245085" fill="#b5432e"/><line x1="180" y1="240" x2="360" y2="320" stroke="#3f7d4e" stroke-width="3" /><polygon points="360,320 348.0019927019784,319.78132015040245 351.79777913873784,311.24080066769363" fill="#3f7d4e"/><rect x="380" y="60" width="230" height="110" rx="10" fill="#ffe5e0" stroke="#b5432e" stroke-width="2"/><text x="495.0" y="109.45" text-anchor="middle" font-size="17" fill="#2b3a4a" font-weight="bold">黑帽：批量投毒</text><text x="495.0" y="132.45" text-anchor="middle" font-size="17" fill="#2b3a4a" font-weight="bold">低质软文海量铺</text><rect x="380" y="270" width="230" height="110" rx="10" fill="#e8f3ea" stroke="#3f7d4e" stroke-width="2"/><text x="495.0" y="319.45" text-anchor="middle" font-size="17" fill="#2b3a4a" font-weight="bold">白帽：官方认证</text><text x="495.0" y="342.45" text-anchor="middle" font-size="17" fill="#2b3a4a" font-weight="bold">真实内容持续更新</text><line x1="615" y1="115" x2="720" y2="115" stroke="#b5432e" stroke-width="3" /><polygon points="720,115 708.9472680719654,119.6730201077038 708.9472680719654,110.3269798922962" fill="#b5432e"/><rect x="730" y="75" width="150" height="80" rx="10" fill="#ffe5e0" stroke="#b5432e" stroke-width="2"/><text x="805.0" y="109.75" text-anchor="middle" font-size="15" fill="#2b3a4a" >被 AI 拉黑</text><text x="805.0" y="130.75" text-anchor="middle" font-size="15" fill="#2b3a4a" >归零难洗白</text><line x1="615" y1="325" x2="720" y2="325" stroke="#3f7d4e" stroke-width="3" /><polygon points="720,325 708.9472680719654,329.6730201077038 708.9472680719654,320.3269798922962" fill="#3f7d4e"/><rect x="730" y="285" width="150" height="80" rx="10" fill="#e8f3ea" stroke="#3f7d4e" stroke-width="2"/><text x="805.0" y="319.75" text-anchor="middle" font-size="15" fill="#2b3a4a" >持续被推荐</text><text x="805.0" y="340.75" text-anchor="middle" font-size="15" fill="#2b3a4a" >时间的朋友</text><text x="450" y="410" text-anchor="middle" font-size="15" fill="#b5432e" font-weight="bold">信任分一旦丢失，重建成本是初始建设的 5 倍以上（315 已曝光投毒黑产）</text></svg>