<svg xmlns="http://www.w3.org/2000/svg" viewBox="0 0 900 360" font-family="PingFang SC, Microsoft YaHei, sans-serif"><rect width="900" height="360" fill="white"/><text x="450" y="38" text-anchor="middle" font-size="22" fill="#2b3a4a" font-weight="bold">客户先问 AI，AI 只推 3~4 家</text><g stroke="#2b3a4a" stroke-width="3" fill="none" stroke-linecap="round"><circle cx="80" cy="150" r="14.0"/><line x1="80" y1="164.0" x2="80" y2="194.0"/><line x1="80" y1="178.0" x2="104.0" y2="166.0"/><line x1="80" y1="178.0" x2="56.0" y2="166.0"/><line x1="80" y1="194.0" x2="68.0" y2="220.0"/><line x1="80" y1="194.0" x2="92.0" y2="220.0"/></g><text x="80" y="242.0" text-anchor="middle" font-size="15.0" fill="#2b3a4a">客户</text><rect x="150" y="90" width="210" height="60" rx="12" fill="white" stroke="#2b3a4a" stroke-width="2.5"/><text x="255.0" y="126.3" text-anchor="middle" font-size="18" fill="#2b3a4a" >附近哪家好？</text><line x1="360" y1="120" x2="420" y2="120" stroke="#ff5f00" stroke-width="3"/><polygon points="420,120 408.9,124.7 408.9,115.3" fill="#ff5f00"/><rect x="420" y="70" width="150" height="110" rx="12" fill="#eef4ff" stroke="#2b3a4a" stroke-width="2.5"/><text x="495.0" y="139.0" text-anchor="middle" font-size="40" fill="#2b3a4a" font-weight="bold">AI</text><rect x="640" y="60" width="200" height="46" rx="12" fill="#fff3e6" stroke="#2b3a4a" stroke-width="2.5"/><text x="740.0" y="88.95" text-anchor="middle" font-size="17" fill="#2b3a4a" >A 公司 ✓</text><rect x="640" y="118" width="200" height="46" rx="12" fill="#fff3e6" stroke="#2b3a4a" stroke-width="2.5"/><text x="740.0" y="146.95" text-anchor="middle" font-size="17" fill="#2b3a4a" >B 公司 ✓</text><rect x="640" y="176" width="200" height="46" rx="12" fill="#fff3e6" stroke="#2b3a4a" stroke-width="2.5"/><text x="740.0" y="204.95" text-anchor="middle" font-size="17" fill="#2b3a4a" >C 公司 ✓</text><rect x="640" y="234" width="200" height="46" rx="12" fill="white" stroke="#ff5f00" stroke-width="2.5"/><text x="740.0" y="262.95" text-anchor="middle" font-size="17" fill="#ff5f00" >你… 没提</text><line x1="570" y1="125" x2="635" y2="125" stroke="#ff5f00" stroke-width="3"/><polygon points="635,125 623.9,129.7 623.9,120.3" fill="#ff5f00"/><text x="450" y="330" text-anchor="middle" font-size="22" fill="#ff5f00" font-weight="bold">没上牌桌 = 无声出局</text></svg>